<svg id="icono_-_buscar" data-name="icono - buscar" xmlns="http://www.w3.org/2000/svg" width="48" height="48" viewBox="0 0 48 48">
  <rect id="Rectángulo_28" data-name="Rectángulo 28" width="48" height="48" rx="24" fill="#2298a9"/>
  <path id="FontAwsome_search_" data-name="FontAwsome (search)" d="M18.2,15.952,14.6,12.359a.864.864,0,0,0-.613-.252H13.4a7.492,7.492,0,1,0-1.3,1.3v.587a.864.864,0,0,0,.252.613L15.952,18.2a.861.861,0,0,0,1.222,0l1.02-1.02A.869.869,0,0,0,18.2,15.952Zm-10.7-3.845a4.612,4.612,0,1,1,4.612-4.612A4.61,4.61,0,0,1,7.495,12.107Z" transform="translate(14.973 14.973)" fill="#fff"/>
</svg>
