<svg xmlns="http://www.w3.org/2000/svg" width="48.125" height="55" viewBox="0 0 48.125 55">
  <path id="FontAwsome_calculator_" data-name="FontAwsome (calculator)" d="M42.969,0H5.156A5.287,5.287,0,0,0,0,5.156V49.844A5.287,5.287,0,0,0,5.156,55H42.969a5.287,5.287,0,0,0,5.156-5.156V5.156A5.287,5.287,0,0,0,42.969,0ZM13.75,46.75a1.479,1.479,0,0,1-1.375,1.375H8.25A1.479,1.479,0,0,1,6.875,46.75V42.625A1.479,1.479,0,0,1,8.25,41.25h4.125a1.479,1.479,0,0,1,1.375,1.375Zm0-13.75a1.479,1.479,0,0,1-1.375,1.375H8.25A1.479,1.479,0,0,1,6.875,33V28.875A1.479,1.479,0,0,1,8.25,27.5h4.125a1.479,1.479,0,0,1,1.375,1.375ZM27.5,46.75a1.479,1.479,0,0,1-1.375,1.375H22a1.479,1.479,0,0,1-1.375-1.375V42.625A1.479,1.479,0,0,1,22,41.25h4.125A1.479,1.479,0,0,1,27.5,42.625V46.75ZM27.5,33a1.479,1.479,0,0,1-1.375,1.375H22A1.479,1.479,0,0,1,20.625,33V28.875A1.479,1.479,0,0,1,22,27.5h4.125A1.479,1.479,0,0,1,27.5,28.875V33ZM41.25,46.75a1.479,1.479,0,0,1-1.375,1.375H35.75a1.479,1.479,0,0,1-1.375-1.375V28.875A1.479,1.479,0,0,1,35.75,27.5h4.125a1.479,1.479,0,0,1,1.375,1.375V46.75Zm0-27.5a1.479,1.479,0,0,1-1.375,1.375H8.25A1.479,1.479,0,0,1,6.875,19.25v-11A1.479,1.479,0,0,1,8.25,6.875H39.875A1.479,1.479,0,0,1,41.25,8.25Z" fill="#2298a9"/>
</svg>
