<svg xmlns="http://www.w3.org/2000/svg" width="14.188" height="16.215" viewBox="0 0 14.188 16.215">
  <path id="FontAwsome_calendar-alt_" data-name="FontAwsome (calendar-alt)" d="M0,14.7a1.521,1.521,0,0,0,1.52,1.52H12.668a1.521,1.521,0,0,0,1.52-1.52V6.081H0ZM10.135,8.488a.381.381,0,0,1,.38-.38h1.267a.381.381,0,0,1,.38.38V9.755a.381.381,0,0,1-.38.38H10.515a.381.381,0,0,1-.38-.38Zm0,4.054a.381.381,0,0,1,.38-.38h1.267a.381.381,0,0,1,.38.38v1.267a.381.381,0,0,1-.38.38H10.515a.381.381,0,0,1-.38-.38ZM6.081,8.488a.381.381,0,0,1,.38-.38H7.728a.381.381,0,0,1,.38.38V9.755a.381.381,0,0,1-.38.38H6.461a.381.381,0,0,1-.38-.38Zm0,4.054a.381.381,0,0,1,.38-.38H7.728a.381.381,0,0,1,.38.38v1.267a.381.381,0,0,1-.38.38H6.461a.381.381,0,0,1-.38-.38ZM2.027,8.488a.381.381,0,0,1,.38-.38H3.674a.381.381,0,0,1,.38.38V9.755a.381.381,0,0,1-.38.38H2.407a.381.381,0,0,1-.38-.38Zm0,4.054a.381.381,0,0,1,.38-.38H3.674a.381.381,0,0,1,.38.38v1.267a.381.381,0,0,1-.38.38H2.407a.381.381,0,0,1-.38-.38ZM12.668,2.027h-1.52V.507A.508.508,0,0,0,10.641,0H9.628a.508.508,0,0,0-.507.507v1.52H5.067V.507A.508.508,0,0,0,4.561,0H3.547A.508.508,0,0,0,3.04.507v1.52H1.52A1.521,1.521,0,0,0,0,3.547v1.52H14.188V3.547A1.521,1.521,0,0,0,12.668,2.027Z" fill="#2298a9"/>
</svg>
