<svg xmlns="http://www.w3.org/2000/svg" width="55" height="55" viewBox="0 0 55 55">
  <path id="FontAwsome_question-circle_" data-name="FontAwsome (question-circle)" d="M63,35.5A27.5,27.5,0,1,1,35.5,8,27.5,27.5,0,0,1,63,35.5ZM36.238,17.093c-6.043,0-9.9,2.546-12.924,7.07a1.332,1.332,0,0,0,.3,1.8l3.848,2.917a1.33,1.33,0,0,0,1.848-.235c1.981-2.512,3.339-3.969,6.354-3.969,2.265,0,5.067,1.458,5.067,3.655,0,1.661-1.371,2.513-3.608,3.767-2.609,1.462-6.06,3.282-6.06,7.835v.444A1.331,1.331,0,0,0,32.4,41.71H38.6a1.331,1.331,0,0,0,1.331-1.331v-.148c0-3.156,9.224-3.287,9.224-11.828C49.16,21.972,42.488,17.093,36.238,17.093Zm-.738,27.5a5.1,5.1,0,1,0,5.1,5.1A5.107,5.107,0,0,0,35.5,44.593Z" transform="translate(-8 -8)" fill="#2298a9"/>
</svg>
