<svg xmlns="http://www.w3.org/2000/svg" width="21" height="24" viewBox="0 0 21 24">
  <path id="FontAwsome_hospital_" data-name="FontAwsome (hospital)" d="M21,23.063V24H0v-.937A.563.563,0,0,1,.563,22.5H1.5V5.625A1.125,1.125,0,0,1,2.625,4.5H6.75V1.125A1.125,1.125,0,0,1,7.875,0h5.25A1.125,1.125,0,0,1,14.25,1.125V4.5h4.125A1.125,1.125,0,0,1,19.5,5.625V22.5h.938A.563.563,0,0,1,21,23.063ZM14.438,9H12.563A.563.563,0,0,0,12,9.563v1.875a.563.563,0,0,0,.563.563h1.875A.563.563,0,0,0,15,11.438V9.563A.563.563,0,0,0,14.438,9ZM6.563,12H8.438A.563.563,0,0,0,9,11.438V9.563A.563.563,0,0,0,8.438,9H6.563A.563.563,0,0,0,6,9.563v1.875A.563.563,0,0,0,6.563,12Zm4.875,6H9.563A.563.563,0,0,0,9,18.563V22.5h3V18.563A.563.563,0,0,0,11.438,18Zm3-4.5H12.563a.563.563,0,0,0-.563.563v1.875a.563.563,0,0,0,.563.562h1.875A.563.563,0,0,0,15,15.938V14.063A.563.563,0,0,0,14.438,13.5ZM9,14.063a.563.563,0,0,0-.562-.562H6.563A.563.563,0,0,0,6,14.063v1.875a.563.563,0,0,0,.563.562H8.438A.563.563,0,0,0,9,15.938ZM8.531,4.5H9.75V5.719A.281.281,0,0,0,10.031,6h.938a.281.281,0,0,0,.281-.281V4.5h1.219a.281.281,0,0,0,.281-.281V3.281A.281.281,0,0,0,12.469,3H11.25V1.781a.281.281,0,0,0-.281-.281h-.937a.281.281,0,0,0-.281.281V3H8.531a.281.281,0,0,0-.281.281v.937A.281.281,0,0,0,8.531,4.5Z" fill="#2298a9"/>
</svg>
