<svg xmlns="http://www.w3.org/2000/svg" width="17.21" height="17.207" viewBox="0 0 17.21 17.207">
  <path id="FontAwsome_upload_" data-name="FontAwsome (upload)" d="M9.949,12.98H7.26a.8.8,0,0,1-.807-.807V6.526H3.506A.671.671,0,0,1,3.032,5.38L8.144.264a.651.651,0,0,1,.918,0L14.178,5.38A.671.671,0,0,1,13.7,6.526H10.756v5.647A.8.8,0,0,1,9.949,12.98Zm7.26-.269v3.765a.8.8,0,0,1-.807.807H.807A.8.8,0,0,1,0,16.475V12.711A.8.8,0,0,1,.807,11.9H5.378v.269A1.884,1.884,0,0,0,7.26,14.055H9.949a1.884,1.884,0,0,0,1.882-1.882V11.9H16.4A.8.8,0,0,1,17.21,12.711Zm-4.168,2.958a.672.672,0,1,0-.672.672A.674.674,0,0,0,13.042,15.669Zm2.151,0a.672.672,0,1,0-.672.672A.674.674,0,0,0,15.193,15.669Z" transform="translate(0 -0.075)" fill="#2298a9"/>
</svg>
