<svg xmlns="http://www.w3.org/2000/svg" width="54.008" height="54" viewBox="0 0 54.008 54">
  <path id="FontAwsome_upload_" data-name="FontAwsome (upload)" d="M31.223,40.573H22.785a2.526,2.526,0,0,1-2.532-2.532V20.32H11a2.106,2.106,0,0,1-1.487-3.6L25.559.668a2.044,2.044,0,0,1,2.88,0L44.493,16.723a2.106,2.106,0,0,1-1.487,3.6H33.755V38.041A2.526,2.526,0,0,1,31.223,40.573Zm22.785-.844V51.543a2.526,2.526,0,0,1-2.532,2.532H2.532A2.526,2.526,0,0,1,0,51.543V39.729A2.526,2.526,0,0,1,2.532,37.2H16.877v.844a5.911,5.911,0,0,0,5.907,5.907h8.439a5.911,5.911,0,0,0,5.907-5.907V37.2H51.476A2.526,2.526,0,0,1,54.008,39.729Zm-13.08,9.283a2.11,2.11,0,1,0-2.11,2.11A2.116,2.116,0,0,0,40.928,49.012Zm6.751,0a2.11,2.11,0,1,0-2.11,2.11A2.116,2.116,0,0,0,47.679,49.012Z" transform="translate(0 -0.075)" fill="#2298a9"/>
</svg>
