<svg xmlns="http://www.w3.org/2000/svg" width="54.008" height="61.723" viewBox="0 0 54.008 61.723">
  <path id="FontAwsome_book-medical_" data-name="FontAwsome (book-medical)" d="M54.008,43.206V3.086A2.839,2.839,0,0,0,50.922,0H11.573A11.367,11.367,0,0,0,0,11.573V50.15A11.367,11.367,0,0,0,11.573,61.723H50.922a3.043,3.043,0,0,0,3.086-3.086V56.708a3.334,3.334,0,0,0-1.157-2.315,34.121,34.121,0,0,1,0-8.873A2.333,2.333,0,0,0,54.008,43.206ZM17.36,20.253a.964.964,0,0,1,.964-.964h6.751V12.538a.964.964,0,0,1,.964-.964h5.787a.964.964,0,0,1,.964.964v6.751h6.751a.964.964,0,0,1,.964.964v5.787a.964.964,0,0,1-.964.964H32.79v6.751a.964.964,0,0,1-.964.964H26.039a.964.964,0,0,1-.964-.964V27H18.324a.964.964,0,0,1-.964-.964ZM45.907,54.008H11.573A3.645,3.645,0,0,1,7.715,50.15a3.866,3.866,0,0,1,3.858-3.858H45.907Z" fill="#2298a9"/>
</svg>
