<svg xmlns="http://www.w3.org/2000/svg" width="40.652" height="54.203" viewBox="0 0 40.652 54.203">
  <path id="FontAwsome_file-invoice-dollar_" data-name="FontAwsome (file-invoice-dollar)" d="M27.747,0H27.1V13.551H40.652V12.9S28.425,0,27.747,0ZM23.714,14.4V0H2.541A2.535,2.535,0,0,0,0,2.541V51.662A2.535,2.535,0,0,0,2.541,54.2h35.57a2.535,2.535,0,0,0,2.541-2.541V16.938h-14.4A2.548,2.548,0,0,1,23.714,14.4ZM6.775,7.622a.847.847,0,0,1,.847-.847h8.469a.847.847,0,0,1,.847.847V9.316a.847.847,0,0,1-.847.847H7.622a.847.847,0,0,1-.847-.847Zm0,8.469V14.4a.847.847,0,0,1,.847-.847h8.469a.847.847,0,0,1,.847.847v1.694a.847.847,0,0,1-.847.847H7.622A.847.847,0,0,1,6.775,16.091ZM22.02,44.027V46.58a.847.847,0,0,1-.847.847H19.479a.847.847,0,0,1-.847-.847V44.009a6.062,6.062,0,0,1-3.321-1.2.848.848,0,0,1-.06-1.285l1.244-1.187a.869.869,0,0,1,1.072-.077,2.549,2.549,0,0,0,1.357.394H21.9a1.331,1.331,0,0,0,1.249-1.4,1.382,1.382,0,0,0-.928-1.348l-4.764-1.429a4.791,4.791,0,0,1-3.343-4.593,4.714,4.714,0,0,1,4.517-4.771V24.561a.847.847,0,0,1,.847-.847h1.694a.847.847,0,0,1,.847.847v2.571a6.054,6.054,0,0,1,3.321,1.2.848.848,0,0,1,.06,1.285l-1.244,1.187a.869.869,0,0,1-1.072.077,2.539,2.539,0,0,0-1.357-.394H18.751a1.331,1.331,0,0,0-1.249,1.4,1.382,1.382,0,0,0,.928,1.348l4.764,1.429a4.791,4.791,0,0,1,3.343,4.593,4.714,4.714,0,0,1-4.517,4.771Z" fill="#2298a9"/>
</svg>
