<svg xmlns="http://www.w3.org/2000/svg" width="12.359" height="14.125" viewBox="0 0 12.359 14.125">
  <path id="FontAwsome_trash-alt_" data-name="FontAwsome (trash-alt)" d="M.883,12.8a1.324,1.324,0,0,0,1.324,1.324h7.945A1.324,1.324,0,0,0,11.476,12.8V3.531H.883Zm7.5-7.062a.441.441,0,1,1,.883,0v6.18a.441.441,0,0,1-.883,0Zm-2.648,0a.441.441,0,1,1,.883,0v6.18a.441.441,0,0,1-.883,0Zm-2.648,0a.441.441,0,1,1,.883,0v6.18a.441.441,0,0,1-.883,0ZM11.918.883H8.607L8.348.367A.662.662,0,0,0,7.755,0H4.6a.654.654,0,0,0-.59.367L3.752.883H.441A.441.441,0,0,0,0,1.324v.883a.441.441,0,0,0,.441.441H11.918a.441.441,0,0,0,.441-.441V1.324A.441.441,0,0,0,11.918.883Z" transform="translate(0 0)" fill="#e02f2f"/>
</svg>
