<svg xmlns="http://www.w3.org/2000/svg" width="15.342" height="15.589" viewBox="0 0 15.342 15.589">
  <path id="FontAwsome_power-off_" data-name="FontAwsome (power-off)" d="M20.125,1.673a7.67,7.67,0,1,1-8.914,0,.745.745,0,0,1,1.083.238l.489.869a.742.742,0,0,1-.2.959,5.2,5.2,0,1,0,6.183,0,.738.738,0,0,1-.2-.956l.489-.869a.741.741,0,0,1,1.076-.241ZM16.908,8.166V.742A.741.741,0,0,0,16.165,0h-.99a.741.741,0,0,0-.742.742V8.166a.741.741,0,0,0,.742.742h.99A.741.741,0,0,0,16.908,8.166Z" transform="translate(-8)" fill="#fca837"/>
</svg>
